<?xml version="1.0" encoding="iso-8859-1"?>
<!-- Generator: Adobe Illustrator 19.0.0, SVG Export Plug-In . SVG Version: 6.00 Build 0)  -->
<svg version="1.1" id="Lager_1" xmlns="http://www.w3.org/2000/svg" xmlns:xlink="http://www.w3.org/1999/xlink" x="0px" y="0px"
	 viewBox="0 0 228 127" style="enable-background:new 0 0 228 127;" xml:space="preserve">
<g id="XMLID_54_">
	<path id="XMLID_55_" style="fill:#A8A8A8;" d="M71.838,81.09l-1.392-6.864h-7.92l-1.344,6.864h-6.144
		c1.408-5.856,2.832-11.191,4.272-16.008c1.44-4.816,2.832-9.384,4.176-13.704h6.432c1.408,4.352,2.808,8.968,4.2,13.848
		c1.392,4.88,2.743,10.168,4.056,15.864H71.838z M66.558,57.138c-0.32,1.121-0.617,2.184-0.888,3.192
		c-0.272,1.008-0.528,2-0.768,2.976c-0.24,0.977-0.464,1.96-0.672,2.952c-0.208,0.992-0.408,2.016-0.6,3.072h5.808
		c-0.192-1.056-0.384-2.08-0.576-3.072c-0.192-0.992-0.408-1.976-0.648-2.952c-0.24-0.976-0.497-1.968-0.768-2.976
		C67.174,59.322,66.877,58.258,66.558,57.138z"/>
	<path id="XMLID_58_" style="fill:#A8A8A8;" d="M81.63,81.09V48.786l5.904-1.008v10.944c0.48-0.16,1.056-0.312,1.728-0.456
		c0.672-0.144,1.264-0.216,1.776-0.216c1.664,0,3.055,0.248,4.176,0.744c1.12,0.497,2.016,1.2,2.688,2.112s1.152,2,1.44,3.264
		c0.288,1.265,0.432,2.664,0.432,4.2v12.72H93.87V69.138c0-2.112-0.24-3.631-0.72-4.56c-0.48-0.928-1.392-1.392-2.736-1.392
		c-0.544,0-1.08,0.064-1.608,0.192c-0.528,0.128-0.953,0.24-1.272,0.336V81.09H81.63z"/>
	<path id="XMLID_60_" style="fill:#A8A8A8;" d="M123.582,64.53c-0.384-0.096-0.84-0.192-1.368-0.288
		c-0.528-0.096-1.064-0.184-1.608-0.264c-0.544-0.08-1.072-0.136-1.584-0.168c-0.512-0.032-0.944-0.048-1.296-0.048
		c-0.833,0-1.648,0.041-2.448,0.12c-0.8,0.08-1.616,0.232-2.448,0.456V81.09h-5.952V60.018c1.567-0.576,3.175-1.04,4.824-1.392
		c1.647-0.352,3.576-0.528,5.784-0.528c0.32,0,0.775,0.017,1.368,0.048c0.592,0.032,1.224,0.088,1.896,0.168
		c0.672,0.08,1.352,0.176,2.04,0.288c0.688,0.112,1.303,0.264,1.848,0.456L123.582,64.53z"/>
	<path id="XMLID_62_" style="fill:#A8A8A8;" d="M138.126,57.954c1.855,0,3.4,0.216,4.632,0.648c1.231,0.432,2.216,1.04,2.952,1.824
		c0.736,0.785,1.264,1.745,1.584,2.88c0.319,1.136,0.48,2.408,0.48,3.816v13.439c-0.864,0.192-2.144,0.417-3.84,0.672
		c-1.697,0.256-3.6,0.385-5.712,0.385c-1.44,0-2.745-0.129-3.912-0.385c-1.168-0.255-2.168-0.679-3-1.271
		c-0.833-0.592-1.472-1.359-1.92-2.304c-0.449-0.944-0.672-2.104-0.672-3.48c0-1.312,0.256-2.416,0.768-3.312
		c0.512-0.896,1.2-1.615,2.064-2.16c0.864-0.544,1.855-0.936,2.976-1.176c1.12-0.24,2.288-0.36,3.504-0.36
		c1.536,0,2.896,0.128,4.08,0.384v-0.72c0-1.12-0.353-2.056-1.056-2.808c-0.705-0.751-1.92-1.128-3.648-1.128
		c-1.12,0-2.2,0.08-3.24,0.24c-1.041,0.161-1.88,0.353-2.52,0.576l-0.816-4.752c0.736-0.256,1.776-0.488,3.12-0.696
		C135.294,58.058,136.686,57.954,138.126,57.954z M138.654,76.866c0.64,0,1.264-0.008,1.872-0.024
		c0.607-0.016,1.136-0.056,1.584-0.12v-5.184c-0.384-0.064-0.848-0.12-1.392-0.168c-0.544-0.048-1.04-0.072-1.488-0.072
		c-0.608,0-1.2,0.041-1.776,0.12c-0.576,0.08-1.08,0.216-1.512,0.408c-0.432,0.192-0.776,0.464-1.032,0.816
		c-0.257,0.353-0.384,0.816-0.384,1.393c0,1.024,0.384,1.752,1.152,2.184C136.446,76.649,137.438,76.866,138.654,76.866z"/>
	<path id="XMLID_65_" style="fill:#A8A8A8;" d="M171.054,62.85c-0.449,0.513-1.088,1.272-1.92,2.28
		c-0.833,1.008-1.736,2.136-2.712,3.384c-0.977,1.248-1.952,2.552-2.928,3.912c-0.977,1.36-1.848,2.616-2.616,3.768h10.656v4.896
		h-17.712v-3.6c0.736-1.216,1.536-2.464,2.4-3.744c0.864-1.28,1.728-2.536,2.592-3.768c0.864-1.231,1.711-2.408,2.544-3.528
		c0.832-1.12,1.584-2.127,2.256-3.024h-9.312V58.53h16.752V62.85z"/>
</g>
</svg>
